<svg clip-rule="evenodd" fill-rule="evenodd" stroke-linecap="round" stroke-linejoin="round" stroke-miterlimit="1.5" viewBox="0 0 128 128" xmlns="http://www.w3.org/2000/svg"><path d="m0 0h128v128h-128z" fill="none"/><circle cx="64" cy="64" r="51.845" stroke="#ffd123" stroke-width="8"/><path d="m-1.663 26.183c0-.742.238-1.494.715-2.256s1.172-1.393 2.086-1.893 1.98-.75 3.199-.75c1.133 0 2.133.209 3 .627s1.537.987 2.01 1.706c.473.718.709 1.5.709 2.343 0 .664-.135 1.246-.404 1.746-.27.5-.59.932-.961 1.295-.371.364-1.037.975-1.998 1.834-.266.242-.479.455-.639.639s-.279.352-.357.504c-.079.152-.139.305-.182.457s-.108.42-.193.803c-.149.812-.614 1.218-1.395 1.218-.406 0-.748-.132-1.025-.398-.278-.266-.416-.66-.416-1.184 0-.656.101-1.224.304-1.705.203-.48.473-.902.809-1.265.336-.364.789-.795 1.359-1.295.5-.438.862-.768 1.084-.991.223-.222.41-.47.563-.744.152-.273.228-.57.228-.89 0-.625-.232-1.153-.697-1.582-.465-.43-1.064-.645-1.799-.645-.859 0-1.492.217-1.898.651-.407.433-.75 1.072-1.032 1.916-.265.882-.769 1.324-1.511 1.324-.438 0-.807-.155-1.108-.463-.3-.309-.451-.643-.451-1.002zm5.719 12.844c-.477 0-.893-.155-1.248-.463-.356-.309-.533-.74-.533-1.295 0-.492.172-.906.515-1.242.344-.336.766-.504 1.266-.504.492 0 .906.168 1.242.504s.504.75.504 1.242c0 .547-.176.976-.527 1.289-.352.312-.758.469-1.219.469z" fill="#fff" fill-rule="nonzero" transform="matrix(4.26592 0 0 4.26592 46.098 -64.6414)"/></svg>